<mxfile host="app.diagrams.net" agent="Mozilla/5.0 (Windows NT 10.0; Win64; x64) AppleWebKit/537.36 (KHTML, like Gecko) Chrome/130.0.0.0 Safari/537.36 Edg/130.0.0.0" version="24.8.6" pages="3">
  <diagram name="SD1" id="IPUVujdmmtZPShG0CMn7">
    <mxGraphModel dx="1970" dy="485" grid="1" gridSize="10" guides="1" tooltips="1" connect="1" arrows="1" fold="1" page="1" pageScale="1" pageWidth="827" pageHeight="1169" math="0" shadow="0">
      <root>
        <mxCell id="0" />
        <mxCell id="1" parent="0" />
        <mxCell id="gS8NZXoSdgU28nUAKFMY-4" value="sd checkAvailability(w:libraryStaff)" style="shape=umlFrame;whiteSpace=wrap;html=1;pointerEvents=0;width=200;height=50;" parent="1" vertex="1">
          <mxGeometry x="-788" y="80" width="768" height="490" as="geometry" />
        </mxCell>
        <mxCell id="gS8NZXoSdgU28nUAKFMY-6" value=":libraryStaff" style="shape=umlLifeline;perimeter=lifelinePerimeter;whiteSpace=wrap;html=1;container=1;dropTarget=0;collapsible=0;recursiveResize=0;outlineConnect=0;portConstraint=eastwest;newEdgeStyle={&quot;curved&quot;:0,&quot;rounded&quot;:0};" parent="1" vertex="1">
          <mxGeometry x="-660" y="155" width="100" height="415" as="geometry" />
        </mxCell>
        <mxCell id="gS8NZXoSdgU28nUAKFMY-7" value="" style="html=1;points=[[0,0,0,0,5],[0,1,0,0,-5],[1,0,0,0,5],[1,1,0,0,-5]];perimeter=orthogonalPerimeter;outlineConnect=0;targetShapes=umlLifeline;portConstraint=eastwest;newEdgeStyle={&quot;curved&quot;:0,&quot;rounded&quot;:0};" parent="gS8NZXoSdgU28nUAKFMY-6" vertex="1">
          <mxGeometry x="42.5" y="50" width="15" height="280" as="geometry" />
        </mxCell>
        <mxCell id="gS8NZXoSdgU28nUAKFMY-13" value="" style="html=1;align=left;spacingLeft=2;endArrow=block;rounded=0;edgeStyle=orthogonalEdgeStyle;curved=0;rounded=0;" parent="gS8NZXoSdgU28nUAKFMY-6" edge="1">
          <mxGeometry relative="1" as="geometry">
            <mxPoint x="57.5" y="255" as="sourcePoint" />
            <Array as="points">
              <mxPoint x="97.5" y="255" />
              <mxPoint x="97.5" y="275" />
            </Array>
            <mxPoint x="57.5" y="275" as="targetPoint" />
          </mxGeometry>
        </mxCell>
        <mxCell id="gS8NZXoSdgU28nUAKFMY-10" value="loop [for each copy in copies]" style="shape=umlFrame;whiteSpace=wrap;html=1;pointerEvents=0;width=190;height=20;" parent="1" vertex="1">
          <mxGeometry x="-620" y="350" width="220" height="120" as="geometry" />
        </mxCell>
        <mxCell id="gS8NZXoSdgU28nUAKFMY-11" value="break [copy in books]" style="shape=umlFrame;whiteSpace=wrap;html=1;pointerEvents=0;width=140;height=20;" parent="1" vertex="1">
          <mxGeometry x="-620" y="380" width="200" height="70" as="geometry" />
        </mxCell>
        <mxCell id="gS8NZXoSdgU28nUAKFMY-15" value="&lt;span style=&quot;font-size: 10px;&quot;&gt;Exists(ID)&lt;/span&gt;" style="text;html=1;align=center;verticalAlign=middle;resizable=0;points=[];autosize=1;strokeColor=none;fillColor=none;" parent="1" vertex="1">
          <mxGeometry x="-570" y="410" width="70" height="30" as="geometry" />
        </mxCell>
        <mxCell id="gS8NZXoSdgU28nUAKFMY-16" value="" style="html=1;verticalAlign=bottom;endArrow=block;curved=0;rounded=0;entryX=0;entryY=0;entryDx=0;entryDy=5;entryPerimeter=0;exitX=0;exitY=0.269;exitDx=0;exitDy=0;exitPerimeter=0;" parent="1" source="gS8NZXoSdgU28nUAKFMY-4" target="gS8NZXoSdgU28nUAKFMY-7" edge="1">
          <mxGeometry width="80" relative="1" as="geometry">
            <mxPoint x="-790" y="225" as="sourcePoint" />
            <mxPoint x="-620" y="230" as="targetPoint" />
          </mxGeometry>
        </mxCell>
        <mxCell id="I4fenU0Ld3atN9Cx0nVr-2" value="cat :Category" style="shape=umlLifeline;perimeter=lifelinePerimeter;whiteSpace=wrap;html=1;container=1;dropTarget=0;collapsible=0;recursiveResize=0;outlineConnect=0;portConstraint=eastwest;newEdgeStyle={&quot;curved&quot;:0,&quot;rounded&quot;:0};" parent="1" vertex="1">
          <mxGeometry x="-430" y="155" width="100" height="415" as="geometry" />
        </mxCell>
        <mxCell id="I4fenU0Ld3atN9Cx0nVr-6" value="opt[ ch = true]" style="shape=umlFrame;whiteSpace=wrap;html=1;pointerEvents=0;width=200;height=20;" parent="1" vertex="1">
          <mxGeometry x="-640" y="325" width="360" height="155" as="geometry" />
        </mxCell>
        <mxCell id="I4fenU0Ld3atN9Cx0nVr-7" value="" style="html=1;points=[[0,0,0,0,5],[0,1,0,0,-5],[1,0,0,0,5],[1,1,0,0,-5]];perimeter=orthogonalPerimeter;outlineConnect=0;targetShapes=umlLifeline;portConstraint=eastwest;newEdgeStyle={&quot;curved&quot;:0,&quot;rounded&quot;:0};" parent="1" vertex="1">
          <mxGeometry x="-385" y="250" width="10" height="80" as="geometry" />
        </mxCell>
        <mxCell id="I4fenU0Ld3atN9Cx0nVr-12" value="categories[]" style="shape=umlLifeline;perimeter=lifelinePerimeter;whiteSpace=wrap;html=1;container=1;dropTarget=0;collapsible=0;recursiveResize=0;outlineConnect=0;portConstraint=eastwest;newEdgeStyle={&quot;curved&quot;:0,&quot;rounded&quot;:0};" parent="1" vertex="1">
          <mxGeometry x="-270" y="155" width="100" height="415" as="geometry" />
        </mxCell>
        <mxCell id="tU4L3wJbYJGazlONdW9W-1" value="" style="endArrow=open;endSize=12;dashed=1;html=1;rounded=0;exitX=0;exitY=1;exitDx=0;exitDy=-5;exitPerimeter=0;" parent="1" source="gS8NZXoSdgU28nUAKFMY-7" edge="1">
          <mxGeometry width="160" relative="1" as="geometry">
            <mxPoint x="-620" y="480" as="sourcePoint" />
            <mxPoint x="-788" y="480" as="targetPoint" />
          </mxGeometry>
        </mxCell>
        <mxCell id="cRC8iW1p2TUcZE0vUNZ1-1" value="" style="html=1;align=left;spacingLeft=2;endArrow=block;rounded=0;edgeStyle=orthogonalEdgeStyle;curved=0;rounded=0;" edge="1" parent="1">
          <mxGeometry relative="1" as="geometry">
            <mxPoint x="-594" y="302" as="sourcePoint" />
            <Array as="points">
              <mxPoint x="-390" y="302" />
            </Array>
            <mxPoint x="-390" y="300" as="targetPoint" />
          </mxGeometry>
        </mxCell>
        <mxCell id="cRC8iW1p2TUcZE0vUNZ1-2" value="ch = checkCategory()" style="text;html=1;align=center;verticalAlign=middle;resizable=0;points=[];autosize=1;strokeColor=none;fillColor=none;" vertex="1" parent="1">
          <mxGeometry x="-570" y="268" width="140" height="30" as="geometry" />
        </mxCell>
        <mxCell id="cRC8iW1p2TUcZE0vUNZ1-4" value="cat = getCat(book)" style="html=1;align=left;spacingLeft=2;endArrow=block;rounded=0;edgeStyle=orthogonalEdgeStyle;curved=0;rounded=0;" edge="1" target="I4fenU0Ld3atN9Cx0nVr-12" parent="1">
          <mxGeometry relative="1" as="geometry">
            <mxPoint x="-600" y="220" as="sourcePoint" />
            <Array as="points">
              <mxPoint x="-570" y="220" />
              <mxPoint x="-570" y="250" />
            </Array>
            <mxPoint x="-595" y="250" as="targetPoint" />
          </mxGeometry>
        </mxCell>
      </root>
    </mxGraphModel>
  </diagram>
  <diagram id="a7ns2n16CXBNmLfBDM0L" name="SD2">
    <mxGraphModel dx="2442" dy="443" grid="1" gridSize="10" guides="1" tooltips="1" connect="1" arrows="1" fold="1" page="1" pageScale="1" pageWidth="827" pageHeight="1169" math="0" shadow="0">
      <root>
        <mxCell id="0" />
        <mxCell id="1" parent="0" />
        <mxCell id="6RctxTQbn7jA8UyajEi0-1" value="&lt;span style=&quot;text-wrap-mode: nowrap;&quot;&gt;sd checkAvailability(w: MedicalWorker)&lt;/span&gt;" style="shape=umlFrame;whiteSpace=wrap;html=1;pointerEvents=0;gradientColor=none;swimlaneFillColor=default;width=238;height=30;" parent="1" vertex="1">
          <mxGeometry x="-1538.35" y="40" width="550" height="390" as="geometry" />
        </mxCell>
        <mxCell id="6RctxTQbn7jA8UyajEi0-2" value=":MedicalWorker" style="shape=umlLifeline;perimeter=lifelinePerimeter;whiteSpace=wrap;html=1;container=1;dropTarget=0;collapsible=0;recursiveResize=0;outlineConnect=0;portConstraint=eastwest;newEdgeStyle={&quot;curved&quot;:0,&quot;rounded&quot;:0};" parent="1" vertex="1">
          <mxGeometry x="-1388.35" y="90" width="100" height="340" as="geometry" />
        </mxCell>
        <mxCell id="E8eBlwKSeClwFS0IbUn1-1" value="" style="html=1;points=[[0,0,0,0,5],[0,1,0,0,-5],[1,0,0,0,5],[1,1,0,0,-5]];perimeter=orthogonalPerimeter;outlineConnect=0;targetShapes=umlLifeline;portConstraint=eastwest;newEdgeStyle={&quot;curved&quot;:0,&quot;rounded&quot;:0};" parent="6RctxTQbn7jA8UyajEi0-2" vertex="1">
          <mxGeometry x="45" y="50" width="10" height="280" as="geometry" />
        </mxCell>
        <mxCell id="hULWhXPQY1vZLs8APKxD-5" value="compute" style="html=1;align=left;spacingLeft=2;endArrow=block;rounded=0;edgeStyle=orthogonalEdgeStyle;curved=0;rounded=0;" parent="6RctxTQbn7jA8UyajEi0-2" target="E8eBlwKSeClwFS0IbUn1-1" edge="1">
          <mxGeometry relative="1" as="geometry">
            <mxPoint x="55" y="220" as="sourcePoint" />
            <Array as="points">
              <mxPoint x="85" y="220" />
              <mxPoint x="85" y="250" />
            </Array>
            <mxPoint x="60.34999999999991" y="250" as="targetPoint" />
          </mxGeometry>
        </mxCell>
        <mxCell id="6RctxTQbn7jA8UyajEi0-3" value=":TimeSheet" style="shape=umlLifeline;perimeter=lifelinePerimeter;whiteSpace=wrap;html=1;container=1;dropTarget=0;collapsible=0;recursiveResize=0;outlineConnect=0;portConstraint=eastwest;newEdgeStyle={&quot;curved&quot;:0,&quot;rounded&quot;:0};" parent="1" vertex="1">
          <mxGeometry x="-1098.35" y="90" width="100" height="340" as="geometry" />
        </mxCell>
        <mxCell id="WRwWexdqhhIisoKOPa96-3" value="" style="html=1;points=[[0,0,0,0,5],[0,1,0,0,-5],[1,0,0,0,5],[1,1,0,0,-5]];perimeter=orthogonalPerimeter;outlineConnect=0;targetShapes=umlLifeline;portConstraint=eastwest;newEdgeStyle={&quot;curved&quot;:0,&quot;rounded&quot;:0};" parent="6RctxTQbn7jA8UyajEi0-3" vertex="1">
          <mxGeometry x="45" y="70" width="10" height="50" as="geometry" />
        </mxCell>
        <mxCell id="E8eBlwKSeClwFS0IbUn1-3" value="" style="html=1;verticalAlign=bottom;endArrow=block;curved=0;rounded=0;" parent="1" target="E8eBlwKSeClwFS0IbUn1-1" edge="1">
          <mxGeometry width="80" relative="1" as="geometry">
            <mxPoint x="-1538.35" y="160" as="sourcePoint" />
            <mxPoint x="-1458.35" y="160" as="targetPoint" />
          </mxGeometry>
        </mxCell>
        <mxCell id="WRwWexdqhhIisoKOPa96-4" value="getSchedule(worker)" style="html=1;verticalAlign=bottom;endArrow=block;curved=0;rounded=0;" parent="1" edge="1">
          <mxGeometry width="80" relative="1" as="geometry">
            <mxPoint x="-1333.35" y="170" as="sourcePoint" />
            <mxPoint x="-1053.35" y="170" as="targetPoint" />
          </mxGeometry>
        </mxCell>
        <mxCell id="WRwWexdqhhIisoKOPa96-5" value="timesheets" style="html=1;verticalAlign=bottom;endArrow=open;dashed=1;endSize=8;curved=0;rounded=0;exitX=0;exitY=1;exitDx=0;exitDy=-5;exitPerimeter=0;" parent="1" source="WRwWexdqhhIisoKOPa96-3" target="E8eBlwKSeClwFS0IbUn1-1" edge="1">
          <mxGeometry relative="1" as="geometry">
            <mxPoint x="-1188.35" y="300" as="sourcePoint" />
            <mxPoint x="-1268.35" y="300" as="targetPoint" />
          </mxGeometry>
        </mxCell>
        <mxCell id="WRwWexdqhhIisoKOPa96-6" value="loop [for each ts in timesheets]" style="shape=umlFrame;whiteSpace=wrap;html=1;pointerEvents=0;width=146;height=30;" parent="1" vertex="1">
          <mxGeometry x="-1354.35" y="230" width="236" height="150" as="geometry" />
        </mxCell>
        <mxCell id="WRwWexdqhhIisoKOPa96-7" value="break [ts in datetimes]" style="shape=umlFrame;whiteSpace=wrap;html=1;pointerEvents=0;width=140;height=30;" parent="1" vertex="1">
          <mxGeometry x="-1388.35" y="275" width="220" height="85" as="geometry" />
        </mxCell>
        <mxCell id="WRwWexdqhhIisoKOPa96-8" value="entry" style="html=1;verticalAlign=bottom;endArrow=open;dashed=1;endSize=8;curved=0;rounded=0;entryX=0.001;entryY=0.766;entryDx=0;entryDy=0;entryPerimeter=0;" parent="1" edge="1">
          <mxGeometry relative="1" as="geometry">
            <mxPoint x="-1343.35" y="347.74" as="sourcePoint" />
            <mxPoint x="-1537.8" y="347.74" as="targetPoint" />
          </mxGeometry>
        </mxCell>
        <mxCell id="WRwWexdqhhIisoKOPa96-9" value="" style="html=1;verticalAlign=bottom;endArrow=open;dashed=1;endSize=8;curved=0;rounded=0;exitX=0;exitY=1;exitDx=0;exitDy=-5;exitPerimeter=0;entryX=-0.003;entryY=0.963;entryDx=0;entryDy=0;entryPerimeter=0;" parent="1" source="E8eBlwKSeClwFS0IbUn1-1" target="6RctxTQbn7jA8UyajEi0-1" edge="1">
          <mxGeometry relative="1" as="geometry">
            <mxPoint x="-1188.35" y="230" as="sourcePoint" />
            <mxPoint x="-1268.35" y="230" as="targetPoint" />
          </mxGeometry>
        </mxCell>
      </root>
    </mxGraphModel>
  </diagram>
  <diagram id="8V-jSC9RnYeYwfoJHyFh" name="SD3">
    <mxGraphModel dx="951" dy="534" grid="1" gridSize="10" guides="1" tooltips="1" connect="1" arrows="1" fold="1" page="1" pageScale="1" pageWidth="827" pageHeight="1169" math="0" shadow="0">
      <root>
        <mxCell id="0" />
        <mxCell id="1" parent="0" />
        <mxCell id="_Vtow9UBV0C9BSCzTUur-4" value=":Doctor" style="shape=umlLifeline;perimeter=lifelinePerimeter;whiteSpace=wrap;html=1;container=1;dropTarget=0;collapsible=0;recursiveResize=0;outlineConnect=0;portConstraint=eastwest;newEdgeStyle={&quot;curved&quot;:0,&quot;rounded&quot;:0};" parent="1" vertex="1">
          <mxGeometry x="419" y="90" width="100" height="610" as="geometry" />
        </mxCell>
        <mxCell id="6pYHSUjwthRizevOBF00-12" value="" style="endArrow=none;dashed=1;html=1;rounded=0;exitX=0.073;exitY=0.999;exitDx=0;exitDy=0;exitPerimeter=0;" parent="1" source="BXQw4HetUYAuLP_DdRt9-1" edge="1">
          <mxGeometry width="50" height="50" relative="1" as="geometry">
            <mxPoint x="160" y="360" as="sourcePoint" />
            <mxPoint x="125" y="160" as="targetPoint" />
          </mxGeometry>
        </mxCell>
        <mxCell id="BXQw4HetUYAuLP_DdRt9-1" value="cameAppoitment(a: Appointment)" style="shape=umlFrame;whiteSpace=wrap;html=1;pointerEvents=0;width=240;height=40;" parent="1" vertex="1">
          <mxGeometry x="60" y="30" width="890" height="670" as="geometry" />
        </mxCell>
        <mxCell id="BXQw4HetUYAuLP_DdRt9-2" value="Patient" style="shape=umlActor;verticalLabelPosition=bottom;verticalAlign=top;html=1;" parent="1" vertex="1">
          <mxGeometry x="110" y="80" width="30" height="60" as="geometry" />
        </mxCell>
        <mxCell id="BXQw4HetUYAuLP_DdRt9-4" value="a :Appointment" style="shape=umlLifeline;perimeter=lifelinePerimeter;whiteSpace=wrap;html=1;container=1;dropTarget=0;collapsible=0;recursiveResize=0;outlineConnect=0;portConstraint=eastwest;newEdgeStyle={&quot;curved&quot;:0,&quot;rounded&quot;:0};" parent="1" vertex="1">
          <mxGeometry x="250" y="90" width="100" height="610" as="geometry" />
        </mxCell>
        <mxCell id="BXQw4HetUYAuLP_DdRt9-5" value=":MedicalCard" style="shape=umlLifeline;perimeter=lifelinePerimeter;whiteSpace=wrap;html=1;container=1;dropTarget=0;collapsible=0;recursiveResize=0;outlineConnect=0;portConstraint=eastwest;newEdgeStyle={&quot;curved&quot;:0,&quot;rounded&quot;:0};" parent="1" vertex="1">
          <mxGeometry x="600" y="90" width="100" height="610" as="geometry" />
        </mxCell>
        <mxCell id="BXQw4HetUYAuLP_DdRt9-24" value="" style="html=1;points=[[0,0,0,0,5],[0,1,0,0,-5],[1,0,0,0,5],[1,1,0,0,-5]];perimeter=orthogonalPerimeter;outlineConnect=0;targetShapes=umlLifeline;portConstraint=eastwest;newEdgeStyle={&quot;curved&quot;:0,&quot;rounded&quot;:0};" parent="BXQw4HetUYAuLP_DdRt9-5" vertex="1">
          <mxGeometry x="45" y="250" width="10" height="300" as="geometry" />
        </mxCell>
        <mxCell id="BXQw4HetUYAuLP_DdRt9-6" value=":Diagnosis" style="shape=umlLifeline;perimeter=lifelinePerimeter;whiteSpace=wrap;html=1;container=1;dropTarget=0;collapsible=0;recursiveResize=0;outlineConnect=0;portConstraint=eastwest;newEdgeStyle={&quot;curved&quot;:0,&quot;rounded&quot;:0};" parent="1" vertex="1">
          <mxGeometry x="820" y="90" width="100" height="610" as="geometry" />
        </mxCell>
        <mxCell id="6pYHSUjwthRizevOBF00-9" value="" style="html=1;points=[[0,0,0,0,5],[0,1,0,0,-5],[1,0,0,0,5],[1,1,0,0,-5]];perimeter=orthogonalPerimeter;outlineConnect=0;targetShapes=umlLifeline;portConstraint=eastwest;newEdgeStyle={&quot;curved&quot;:0,&quot;rounded&quot;:0};" parent="BXQw4HetUYAuLP_DdRt9-6" vertex="1">
          <mxGeometry x="45" y="470" width="10" height="40" as="geometry" />
        </mxCell>
        <mxCell id="BXQw4HetUYAuLP_DdRt9-7" value="" style="html=1;points=[[0,0,0,0,5],[0,1,0,0,-5],[1,0,0,0,5],[1,1,0,0,-5]];perimeter=orthogonalPerimeter;outlineConnect=0;targetShapes=umlLifeline;portConstraint=eastwest;newEdgeStyle={&quot;curved&quot;:0,&quot;rounded&quot;:0};" parent="1" vertex="1">
          <mxGeometry x="120" y="170" width="10" height="500" as="geometry" />
        </mxCell>
        <mxCell id="BXQw4HetUYAuLP_DdRt9-10" value="" style="html=1;points=[[0,0,0,0,5],[0,1,0,0,-5],[1,0,0,0,5],[1,1,0,0,-5]];perimeter=orthogonalPerimeter;outlineConnect=0;targetShapes=umlLifeline;portConstraint=eastwest;newEdgeStyle={&quot;curved&quot;:0,&quot;rounded&quot;:0};" parent="1" vertex="1">
          <mxGeometry x="464" y="260" width="10" height="390" as="geometry" />
        </mxCell>
        <mxCell id="BXQw4HetUYAuLP_DdRt9-25" value="getPatientDiagnosis()" style="html=1;verticalAlign=bottom;endArrow=block;curved=0;rounded=0;" parent="1" edge="1">
          <mxGeometry width="80" relative="1" as="geometry">
            <mxPoint x="474" y="373.5" as="sourcePoint" />
            <mxPoint x="645" y="373.5" as="targetPoint" />
          </mxGeometry>
        </mxCell>
        <mxCell id="BXQw4HetUYAuLP_DdRt9-26" value="diagnosis = Diagnosis[*]" style="html=1;verticalAlign=bottom;endArrow=open;dashed=1;endSize=8;curved=0;rounded=0;exitX=0;exitY=1;exitDx=0;exitDy=-5;exitPerimeter=0;" parent="1" edge="1">
          <mxGeometry x="0.0002" relative="1" as="geometry">
            <mxPoint x="645" y="421" as="sourcePoint" />
            <mxPoint x="474" y="421" as="targetPoint" />
            <mxPoint as="offset" />
          </mxGeometry>
        </mxCell>
        <mxCell id="6pYHSUjwthRizevOBF00-2" value="new_treatment&lt;br&gt;&lt;div&gt;= patientCheckup(&lt;div&gt;patient,&amp;nbsp;&lt;span style=&quot;text-align: center;&quot;&gt;diagnosis&lt;/span&gt;,&lt;/div&gt;&lt;div&gt;cm_res)&lt;/div&gt;&lt;/div&gt;" style="html=1;align=left;spacingLeft=2;endArrow=block;rounded=0;edgeStyle=orthogonalEdgeStyle;curved=0;rounded=0;" parent="1" edge="1">
          <mxGeometry x="0.1554" y="6" relative="1" as="geometry">
            <mxPoint x="474" y="438" as="sourcePoint" />
            <Array as="points">
              <mxPoint x="504" y="438" />
              <mxPoint x="504" y="468" />
            </Array>
            <mxPoint x="474" y="468" as="targetPoint" />
            <mxPoint as="offset" />
          </mxGeometry>
        </mxCell>
        <mxCell id="6pYHSUjwthRizevOBF00-4" value="opt&amp;nbsp;&lt;span style=&quot;text-wrap-mode: nowrap;&quot;&gt;[new_treatment != null]&lt;/span&gt;" style="shape=umlFrame;whiteSpace=wrap;html=1;pointerEvents=0;width=176;height=30;" parent="1" vertex="1">
          <mxGeometry x="454" y="510" width="431" height="100" as="geometry" />
        </mxCell>
        <mxCell id="6pYHSUjwthRizevOBF00-5" value="updateDiagnosis(&lt;div&gt;diagnosis: Diagnosis)&lt;/div&gt;" style="html=1;verticalAlign=bottom;endArrow=block;curved=0;rounded=0;" parent="1" edge="1">
          <mxGeometry width="80" relative="1" as="geometry">
            <mxPoint x="474" y="573" as="sourcePoint" />
            <mxPoint x="645" y="573" as="targetPoint" />
          </mxGeometry>
        </mxCell>
        <mxCell id="6pYHSUjwthRizevOBF00-8" value="diagnosis.UpdateTreatment(&lt;div&gt;treatment: string)&lt;/div&gt;" style="html=1;verticalAlign=bottom;endArrow=block;curved=0;rounded=0;" parent="1" edge="1">
          <mxGeometry width="80" relative="1" as="geometry">
            <mxPoint x="655" y="591.5" as="sourcePoint" />
            <mxPoint x="865.0000000000002" y="591.5" as="targetPoint" />
          </mxGeometry>
        </mxCell>
        <mxCell id="6pYHSUjwthRizevOBF00-11" value="" style="html=1;verticalAlign=bottom;endArrow=open;dashed=1;endSize=8;curved=0;rounded=0;" parent="1" edge="1">
          <mxGeometry relative="1" as="geometry">
            <mxPoint x="464" y="643.5" as="sourcePoint" />
            <mxPoint x="135" y="643.5" as="targetPoint" />
          </mxGeometry>
        </mxCell>
        <mxCell id="qJcW2Ex0Gpp9v0WJSqWM-2" value="complaints =&amp;nbsp;&lt;div&gt;getComplaints()&lt;/div&gt;" style="html=1;align=left;spacingLeft=2;endArrow=block;rounded=0;edgeStyle=orthogonalEdgeStyle;curved=0;rounded=0;" parent="1" source="BXQw4HetUYAuLP_DdRt9-7" target="BXQw4HetUYAuLP_DdRt9-7" edge="1">
          <mxGeometry x="-0.1666" y="10" relative="1" as="geometry">
            <mxPoint x="135" y="230" as="sourcePoint" />
            <Array as="points">
              <mxPoint x="170" y="190" />
              <mxPoint x="170" y="230" />
            </Array>
            <mxPoint x="135" y="230" as="targetPoint" />
            <mxPoint as="offset" />
          </mxGeometry>
        </mxCell>
        <mxCell id="qJcW2Ex0Gpp9v0WJSqWM-5" value="" style="html=1;verticalAlign=bottom;endArrow=block;curved=0;rounded=0;" parent="1" edge="1">
          <mxGeometry width="80" relative="1" as="geometry">
            <mxPoint x="130" y="283" as="sourcePoint" />
            <mxPoint x="464" y="283" as="targetPoint" />
          </mxGeometry>
        </mxCell>
        <mxCell id="qJcW2Ex0Gpp9v0WJSqWM-6" value="mc = a.MedicalCard" style="html=1;verticalAlign=bottom;endArrow=block;curved=0;rounded=0;" parent="1" edge="1">
          <mxGeometry width="80" relative="1" as="geometry">
            <mxPoint x="464" y="346" as="sourcePoint" />
            <mxPoint x="299.5" y="346" as="targetPoint" />
          </mxGeometry>
        </mxCell>
        <mxCell id="_6d4G-XX9__8_DAr_CKI-1" value="doc=a.staff" style="html=1;verticalAlign=bottom;endArrow=block;curved=0;rounded=0;" parent="1" edge="1">
          <mxGeometry width="80" relative="1" as="geometry">
            <mxPoint x="130" y="253.0000000000001" as="sourcePoint" />
            <mxPoint x="299.5" y="253.0000000000001" as="targetPoint" />
          </mxGeometry>
        </mxCell>
        <mxCell id="IRh33gbW-PWielV_H4g9-2" value="cm_res = complaintsAnalysis(&lt;div style=&quot;background-color: rgb(251, 251, 251);&quot;&gt;complains: string[*])&lt;/div&gt;" style="html=1;align=left;spacingLeft=2;endArrow=block;rounded=0;edgeStyle=orthogonalEdgeStyle;curved=0;rounded=0;" parent="1" target="BXQw4HetUYAuLP_DdRt9-10" edge="1">
          <mxGeometry x="-1" y="16" relative="1" as="geometry">
            <mxPoint x="474" y="280" as="sourcePoint" />
            <Array as="points">
              <mxPoint x="474" y="300" />
              <mxPoint x="504" y="300" />
              <mxPoint x="504" y="320" />
            </Array>
            <mxPoint x="479" y="310" as="targetPoint" />
            <mxPoint as="offset" />
          </mxGeometry>
        </mxCell>
        <mxCell id="5PBPHiEYWOr9DqF2qMA6-1" value="schedulePatient(p: patient,&amp;nbsp;&lt;div&gt;complaints: string[*],&lt;/div&gt;&lt;div&gt;a: Appointment)&lt;/div&gt;" style="text;html=1;align=center;verticalAlign=middle;resizable=0;points=[];autosize=1;strokeColor=none;fillColor=none;" vertex="1" parent="1">
          <mxGeometry x="294" y="220" width="170" height="60" as="geometry" />
        </mxCell>
      </root>
    </mxGraphModel>
  </diagram>
</mxfile>
